<?xml version="1.0" encoding="UTF-8" standalone="no"?>
<!-- Created with Inkscape (http://www.inkscape.org/) -->

<svg
   xmlns:dc="http://purl.org/dc/elements/1.1/"
   xmlns:cc="http://creativecommons.org/ns#"
   xmlns:rdf="http://www.w3.org/1999/02/22-rdf-syntax-ns#"
   xmlns:svg="http://www.w3.org/2000/svg"
   xmlns="http://www.w3.org/2000/svg"
   xmlns:sodipodi="http://sodipodi.sourceforge.net/DTD/sodipodi-0.dtd"
   xmlns:inkscape="http://www.inkscape.org/namespaces/inkscape"
   width="24"
   height="24"
   viewBox="0 0 24.000001 24.000001"
   id="svg2"
   version="1.1"
   inkscape:version="0.91 r13725"
   sodipodi:docname="drawing.svg">
  <defs
     id="defs4" />
  <sodipodi:namedview
     id="base"
     pagecolor="#ffffff"
     bordercolor="#666666"
     borderopacity="1.0"
     inkscape:pageopacity="0.0"
     inkscape:pageshadow="2"
     inkscape:zoom="5.6"
     inkscape:cx="56.550903"
     inkscape:cy="21.910198"
     inkscape:document-units="px"
     inkscape:current-layer="layer1"
     showgrid="false"
     inkscape:window-width="1563"
     inkscape:window-height="979"
     inkscape:window-x="-8"
     inkscape:window-y="-8"
     inkscape:window-maximized="1"
     units="px" />
  <metadata
     id="metadata7">
    <rdf:RDF>
      <cc:Work
         rdf:about="">
        <dc:format>image/svg+xml</dc:format>
        <dc:type
           rdf:resource="http://purl.org/dc/dcmitype/StillImage" />
        <dc:title></dc:title>
      </cc:Work>
    </rdf:RDF>
  </metadata>
  <g
     inkscape:label="Layer 1"
     inkscape:groupmode="layer"
     id="layer1"
     transform="translate(0,-1028.3622)">
    <path
       inkscape:connector-curvature="0"
       style="fill:#ff0000;fill-opacity:1;stroke:none"
       d="m 11.330147,1030.3622 c -0.552162,0 -0.996943,0.4268 -0.996943,0.9572 l 0,0.064 c 0,0.066 0.0076,0.1297 0.02056,0.1915 l -8.3537609,0 0,1.0851 1.0627201,0 0,10.2204 0,0.9701 0,0.012 1.2626225,0 0,-0.012 4.9636427,0 -2.7210362,6.512 1.2626224,0 2.7210364,-6.512 2.945605,0 2.721036,6.512 1.262623,0 -2.721036,-6.512 4.897865,0 0,0.012 1.262622,0 0,-0.012 0.01644,0 0,-0.9701 -0.01644,0 0,-10.2204 1.079678,0 0,-1.0851 -8.35376,0 c 0.01297,-0.062 0.02004,-0.1259 0.02004,-0.1915 l 0,-0.064 c 0,-0.5304 -0.444267,-0.9572 -0.996429,-0.9572 l -1.339705,0 z m -7.0048056,2.2975 15.3323576,0 0,10.2204 -15.3323576,0 0,-10.2204 z"
       id="rect3338" />
  </g>
</svg>
